# xmcd CD database file
#
# Track frame offsets:
#	150
#	15929
#	34970
#	52301
#	67972
#	83601
#	99575
#	115233
#	129201
#	143363
#	161566
#	174126
#	189722
#	202960
#
# Disc length: 2890 seconds
#
# Revision: 1
# Processed by: cddbd v1.5.2PL0 Copyright (c) Steve Scherf et al.
# Submitted via: CDex 1.72
#
DISCID=ac0b480e
DTITLE=James, Samuel [CDN-09-For Rosa, Maeve and Noreen-blues) - For Rosa, Maeve and Noreen
DYEAR=2009
DGENRE=Blues
TTITLE0=Bigger, Blacker Ben
TTITLE1=Cryin' Blind
TTITLE2=Joe Fletcher's Blues
TTITLE3=A Sugar Smallhouse Valentine
TTITLE4=I'll Break Your Promise
TTITLE5=Rosa's Sweet Lil' Love Song
TTITLE6=Darlin' Maeve
TTITLE7=I've Haddock Up to Here
TTITLE8=Miss Noreen
TTITLE9=Trouble on Congress Street Rag
TTITLE10=John Ross Said
TTITLE11=The Water's Always Changing, But the River...
TTITLE12=Wooden Tombstone
TTITLE13=Path of Ashes
EXTD=YEAR: 2009
EXTT0=
EXTT1=
EXTT2=
EXTT3=
EXTT4=
EXTT5=
EXTT6=
EXTT7=
EXTT8=
EXTT9=
EXTT10=
EXTT11=
EXTT12=
EXTT13=
PLAYORDER=
